<?xml version="1.0" standalone="no"?>
<!DOCTYPE svg PUBLIC "-//W3C//DTD SVG 20010904//EN"
 "http://www.w3.org/TR/2001/REC-SVG-20010904/DTD/svg10.dtd">
<svg version="1.0" xmlns="http://www.w3.org/2000/svg"
 width="546.000000pt" height="520.000000pt" viewBox="0 0 546.000000 520.000000"
 preserveAspectRatio="xMidYMid meet">

<g transform="translate(0.000000,520.000000) scale(0.100000,-0.100000)"
fill="#000000" stroke="none">
<path d="M3470 4605 l-35 -36 28 6 c17 5 27 3 27 -4 0 -6 7 -11 15 -11 8 0 15
5 15 11 0 8 5 7 15 -1 22 -18 27 -9 12 20 -7 14 -14 30 -15 35 -3 22 -29 14
-62 -20z"/>
<path d="M3478 4518 c-9 -7 -18 -25 -22 -40 -3 -15 -13 -33 -21 -42 -8 -8 -15
-17 -15 -21 0 -4 -7 -14 -16 -22 -12 -12 -13 -18 -3 -24 10 -6 10 -13 1 -33
-6 -14 -10 -26 -8 -26 8 0 56 81 56 94 0 8 6 21 13 28 6 7 14 22 15 33 2 11
10 27 18 36 25 28 12 40 -18 17z"/>
<path d="M3546 4521 c-4 -7 -5 -15 -2 -18 9 -9 19 4 14 18 -4 11 -6 11 -12 0z"/>
<path d="M2397 3825 c-3 -7 0 -18 6 -25 9 -10 8 -12 -5 -7 -12 4 -15 2 -11 -9
3 -7 9 -14 14 -14 12 0 11 -31 0 -49 -8 -13 -12 -13 -27 0 -10 8 -15 9 -11 2
4 -6 3 -14 -3 -18 -5 -3 -10 -14 -10 -25 0 -16 3 -17 24 -7 16 8 21 14 13 19
-7 5 -1 8 15 8 31 0 44 -29 36 -75 -3 -14 -1 -25 4 -25 5 0 7 -3 5 -7 -3 -5 1
-13 7 -19 10 -9 17 -3 32 25 10 20 29 46 41 58 28 27 22 31 -40 29 l-47 -1 0
38 c0 21 5 37 11 37 10 0 6 56 -5 67 -10 11 -45 10 -49 -2z"/>
<path d="M2372 3760 c0 -14 2 -19 5 -12 2 6 2 18 0 25 -3 6 -5 1 -5 -13z"/>
<path d="M2607 3597 c-9 -15 -17 -29 -17 -33 0 -3 -13 -23 -30 -43 -37 -48
-31 -89 13 -82 4 0 7 -5 7 -11 0 -9 4 -8 10 2 8 13 10 12 10 -3 0 -10 -7 -20
-15 -23 -24 -9 -63 4 -67 23 -2 10 -13 -2 -31 -35 -16 -29 -25 -52 -21 -52 3
0 2 -6 -3 -12 -32 -41 -14 -41 41 0 35 26 61 50 59 54 -2 4 3 5 11 2 8 -3 28
1 43 10 38 21 145 63 183 71 46 10 32 18 -42 24 -10 0 -18 8 -18 16 0 8 -9 15
-20 15 -13 0 -20 7 -20 20 0 13 -7 20 -20 20 -18 0 -25 10 -21 33 0 4 -5 7
-13 7 -8 0 -16 5 -18 11 -2 7 -12 0 -21 -14z m-50 -119 c-3 -8 -6 -5 -6 6 -1
11 2 17 5 13 3 -3 4 -12 1 -19z"/>
<path d="M1400 3507 c0 -10 154 -110 169 -110 9 0 19 -5 23 -11 6 -8 8 -8 8 1
0 6 -28 27 -62 46 -35 19 -80 44 -100 57 -21 12 -38 20 -38 17z"/>
<path d="M2340 3433 c0 -35 23 -133 31 -133 8 0 30 100 23 111 -3 5 0 9 5 9 6
0 11 5 11 11 0 5 -4 8 -9 5 -5 -3 -14 1 -21 9 -20 24 -40 18 -40 -12z"/>
<path d="M1647 3361 c5 -19 32 -34 196 -111 41 -19 50 -21 58 -9 7 11 9 11 9
-3 0 -9 10 -20 23 -23 12 -4 46 -18 75 -31 29 -14 89 -34 135 -45 45 -11 90
-23 101 -26 13 -4 16 -2 11 8 -6 8 -4 11 6 7 8 -3 22 3 32 12 17 17 13 19 -90
44 -127 32 -124 31 -143 39 -8 3 -35 11 -60 17 -25 6 -83 26 -130 45 -47 18
-112 43 -145 56 -33 12 -65 26 -72 31 -8 7 -10 3 -6 -11z"/>
<path d="M3198 3163 c-32 -2 -58 -9 -58 -14 0 -12 110 -1 125 12 5 6 5 8 0 7
-6 -1 -36 -3 -67 -5z"/>
<path d="M1467 2893 c-11 -10 -8 -35 3 -28 6 4 7 -1 3 -12 -6 -15 -8 -14 -17
8 -10 23 -14 24 -43 16 -18 -6 -33 -15 -33 -20 0 -13 19 -74 32 -102 8 -20 8
-20 5 0 -2 11 1 26 7 32 6 7 17 19 25 28 9 11 16 13 20 6 9 -14 51 15 51 35 0
28 -37 54 -53 37z"/>
<path d="M4250 2879 c0 -5 5 -7 10 -4 6 3 10 8 10 11 0 2 -4 4 -10 4 -5 0 -10
-5 -10 -11z"/>
<path d="M686 2839 c3 -5 0 -9 -6 -9 -6 0 0 -11 12 -23 22 -22 23 -23 30 -5 4
10 18 23 30 29 l23 10 -22 -5 c-13 -2 -23 -1 -23 4 0 4 -11 8 -25 8 -13 0 -22
-4 -19 -9z"/>
<path d="M786 2841 c-3 -4 16 -8 42 -10 25 -1 44 0 42 2 -10 9 -80 15 -84 8z"/>
<path d="M1150 2816 c0 -20 5 -36 10 -36 6 0 10 13 10 29 0 17 -4 33 -10 36
-6 4 -10 -8 -10 -29z"/>
<path d="M1140 2762 c0 -14 11 -21 26 -15 21 8 17 23 -6 23 -11 0 -20 -4 -20
-8z"/>
<path d="M4332 2740 c0 -14 2 -19 5 -12 2 6 2 18 0 25 -3 6 -5 1 -5 -13z"/>
<path d="M1160 2733 c0 -5 5 -15 10 -23 8 -12 10 -11 10 8 0 12 -4 22 -10 22
-5 0 -10 -3 -10 -7z"/>
<path d="M4332 2650 c0 -19 2 -27 5 -17 2 9 2 25 0 35 -3 9 -5 1 -5 -18z"/>
<path d="M711 2600 l1 -45 11 33 c7 24 7 36 -1 44 -9 9 -12 1 -11 -32z"/>
<path d="M611 2608 c-1 -22 9 -48 20 -48 5 0 8 15 8 33 -2 28 -2 29 -7 7 l-5
-25 -8 25 c-4 15 -7 18 -8 8z"/>
<path d="M4920 2520 c0 -5 5 -10 10 -10 6 0 10 5 10 10 0 6 -4 10 -10 10 -5 0
-10 -4 -10 -10z"/>
<path d="M4665 2512 c-11 -2 -33 -13 -48 -25 l-29 -20 25 -23 25 -23 39 38
c32 32 36 40 23 48 -8 5 -24 7 -35 5z"/>
<path d="M4944 2509 c-4 -7 -20 -8 -38 -5 l-31 6 33 -27 c17 -16 38 -46 46
-68 l13 -40 13 43 c7 23 19 42 27 42 18 0 16 14 -4 32 -26 21 -51 29 -59 17z"/>
<path d="M5000 2430 c0 -5 5 -10 10 -10 6 0 10 5 10 10 0 6 -4 10 -10 10 -5 0
-10 -4 -10 -10z"/>
<path d="M730 2365 c0 -8 5 -15 10 -15 6 0 10 7 10 15 0 8 -4 15 -10 15 -5 0
-10 -7 -10 -15z"/>
<path d="M4540 2357 c0 -16 32 -47 48 -47 15 0 15 6 1 31 -5 11 -14 17 -20 14
-5 -4 -9 -1 -9 4 0 6 -4 11 -10 11 -5 0 -10 -6 -10 -13z"/>
<path d="M5047 2336 c-16 -14 -33 -26 -40 -25 -9 0 -9 2 0 6 10 3 9 8 -3 20
-13 14 -16 14 -29 -3 -8 -11 -15 -24 -15 -30 0 -6 -10 -16 -22 -22 l-23 -11
25 0 c16 -1 21 -4 13 -9 -9 -6 -7 -12 7 -25 11 -9 24 -16 28 -16 29 5 42 -3
42 -27 0 -17 4 -23 12 -18 8 5 9 2 5 -10 -4 -10 -7 -23 -7 -29 0 -7 -4 -6 -10
3 -9 13 -11 13 -21 0 -8 -11 -12 -12 -16 -2 -2 6 -11 12 -18 12 -19 0 -26
-178 -8 -201 17 -21 16 -29 -4 -29 -9 0 -25 -7 -35 -17 -12 -10 -18 -12 -18
-4 0 7 -4 10 -10 6 -5 -3 -7 -12 -4 -20 5 -11 11 -12 24 -5 30 16 39 12 55
-26 10 -25 20 -34 32 -32 10 2 17 10 15 17 -1 7 2 10 8 6 6 -3 8 -11 5 -16 -5
-8 9 -13 18 -6 2 1 11 -4 20 -11 19 -16 64 -6 77 18 14 27 13 30 -15 30 -14 0
-29 8 -35 19 -6 12 -10 106 -11 233 0 117 -4 221 -8 231 -6 17 -9 16 -34 -7z"/>
<path d="M4857 2241 c-4 -17 -3 -21 5 -13 5 5 8 16 6 23 -3 8 -7 3 -11 -10z"/>
<path d="M4780 2224 c-19 -9 -42 -17 -50 -18 -8 -1 -32 -7 -52 -15 -31 -10
-38 -18 -38 -38 0 -15 3 -23 7 -20 3 4 11 2 18 -3 7 -6 23 -3 46 10 19 11 54
30 79 43 68 34 59 71 -10 41z"/>
<path d="M724 2070 c0 -52 1 -74 3 -47 2 26 2 68 0 95 -2 26 -3 4 -3 -48z"/>
<path d="M4511 2069 c-13 -17 -20 -33 -17 -36 3 -3 9 3 13 13 6 15 10 9 19
-26 8 -32 12 -38 13 -20 1 20 3 22 11 10 8 -12 10 -10 10 8 0 17 5 23 18 20
14 -3 18 -16 20 -68 1 -43 -1 -60 -7 -51 -8 12 -12 12 -25 2 -9 -7 -14 -17
-11 -21 3 -5 -1 -15 -9 -23 -13 -12 -13 -17 0 -35 13 -19 43 -32 107 -46 20
-5 27 -2 27 8 0 8 -6 16 -12 19 -9 2 -6 8 8 17 21 13 21 13 -12 42 -55 49 -65
125 -25 188 9 13 11 21 5 17 -26 -16 -82 -18 -96 -3 -13 13 -18 11 -37 -15z"/>
<path d="M2065 1970 c3 -5 10 -10 16 -10 5 0 9 5 9 10 0 6 -7 10 -16 10 -8 0
-12 -4 -9 -10z"/>
<path d="M1165 1890 c-3 -6 1 -7 9 -4 18 7 21 14 7 14 -6 0 -13 -4 -16 -10z"/>
<path d="M4822 1862 c-55 -27 -62 -45 -21 -50 33 -3 84 30 86 56 2 26 3 26
-65 -6z"/>
<path d="M720 1840 c0 -6 7 -10 15 -10 8 0 15 2 15 4 0 2 -7 6 -15 10 -8 3
-15 1 -15 -4z"/>
<path d="M4735 1840 c3 -5 8 -10 11 -10 2 0 4 5 4 10 0 6 -5 10 -11 10 -5 0
-7 -4 -4 -10z"/>
<path d="M545 1820 c-3 -5 1 -10 10 -10 9 0 13 5 10 10 -3 6 -8 10 -10 10 -2
0 -7 -4 -10 -10z"/>
<path d="M1103 1823 c9 -2 23 -2 30 0 6 3 -1 5 -18 5 -16 0 -22 -2 -12 -5z"/>
<path d="M1981 1663 c-9 -20 -15 -23 -20 -14 -5 7 -11 9 -14 5 -3 -5 1 -14 8
-21 11 -10 17 -5 34 22 11 19 17 35 12 35 -4 0 -13 -12 -20 -27z"/>
<path d="M1707 1594 c-14 -14 -7 -36 20 -65 27 -28 51 -40 38 -19 -3 6 -1 10
4 10 6 0 11 -4 11 -10 0 -13 40 -13 60 0 8 5 11 12 7 17 -5 4 -11 3 -15 -2 -6
-9 -42 -20 -42 -13 0 2 -4 18 -9 36 -7 22 -6 30 1 26 6 -4 9 -1 6 7 -5 14 -69
25 -81 13z"/>
<path d="M1890 1325 c0 -8 -6 -15 -12 -15 -9 0 -8 -4 2 -10 13 -8 13 -10 -1
-10 -9 0 -24 -11 -33 -24 -17 -27 -12 -56 9 -56 7 0 19 -2 27 -5 15 -6 73 89
63 105 -4 6 -11 8 -16 5 -5 -4 -12 1 -15 9 -8 20 -24 21 -24 1z"/>
<path d="M2293 1082 c10 -10 17 -24 17 -31 0 -7 5 -9 10 -6 16 10 12 42 -6 49
-29 11 -37 6 -21 -12z"/>
<path d="M3530 1060 c0 -5 5 -10 11 -10 5 0 7 5 4 10 -3 6 -8 10 -11 10 -2 0
-4 -4 -4 -10z"/>
<path d="M2284 969 c-4 -19 -7 -38 -5 -44 1 -5 0 -7 -4 -3 -4 3 -22 -11 -41
-32 -31 -34 -34 -41 -22 -59 8 -13 19 -19 33 -16 23 6 40 -3 47 -25 4 -10 9
-6 17 15 13 35 30 73 42 97 12 23 12 71 0 63 -5 -3 -17 2 -25 11 -9 8 -16 12
-16 7 0 -4 -4 -2 -9 6 -6 10 -11 5 -17 -20z"/>
<path d="M1780 956 c0 -9 7 -16 16 -16 9 0 14 5 12 12 -6 18 -28 21 -28 4z"/>
<path d="M2831 954 c0 -11 3 -14 6 -6 3 7 2 16 -1 19 -3 4 -6 -2 -5 -13z"/>
<path d="M3360 896 c0 -7 6 -19 14 -25 19 -16 32 5 16 24 -16 19 -30 19 -30 1z"/>
<path d="M2484 855 c-16 -64 51 -105 113 -70 l28 16 -28 -4 c-15 -2 -30 0 -34
6 -3 6 -1 7 5 3 8 -5 10 -2 6 9 -5 12 -9 13 -20 4 -8 -6 -14 -8 -14 -3 0 5
-11 22 -25 38 l-24 28 -7 -27z"/>
<path d="M3039 843 l-24 -26 33 23 c33 25 38 30 24 30 -5 0 -19 -12 -33 -27z"/>
<path d="M2985 850 c-3 -5 -1 -10 4 -10 6 0 11 5 11 10 0 6 -2 10 -4 10 -3 0
-8 -4 -11 -10z"/>
<path d="M3630 850 c0 -5 5 -10 10 -10 6 0 10 5 10 10 0 6 -4 10 -10 10 -5 0
-10 -4 -10 -10z"/>
<path d="M1846 833 c-7 -7 33 -53 46 -53 4 0 8 12 8 27 0 14 -3 23 -6 20 -4
-3 -14 -2 -24 3 -10 5 -20 6 -24 3z"/>
<path d="M2068 792 c-32 -2 -58 -7 -58 -12 0 -6 -8 -10 -17 -10 -13 0 -14 -3
-5 -12 9 -9 24 -8 64 1 51 11 87 27 78 33 -3 2 -31 2 -62 0z"/>
<path d="M2275 760 c3 -5 8 -10 11 -10 2 0 4 5 4 10 0 6 -5 10 -11 10 -5 0 -7
-4 -4 -10z"/>
<path d="M2250 709 c0 -5 5 -7 10 -4 6 3 10 8 10 11 0 2 -4 4 -10 4 -5 0 -10
-5 -10 -11z"/>
<path d="M2167 660 c-10 -16 -23 -30 -28 -30 -6 0 -8 -4 -5 -9 6 -10 -119
-131 -135 -131 -5 0 -4 -6 3 -14 10 -10 20 -11 41 -3 34 11 165 139 190 185
l18 32 -33 0 c-27 0 -37 -6 -51 -30z"/>
<path d="M1710 512 c0 -23 57 -56 114 -66 56 -11 42 14 -17 29 -26 7 -55 19
-65 28 -20 19 -32 22 -32 9z"/>
<path d="M1877 464 c-8 -8 1 -24 14 -24 5 0 9 7 9 15 0 15 -12 20 -23 9z"/>
</g>
</svg>
